<svg width="60" height="30" viewBox="0 0 110 37" fill="white" xmlns="http://www.w3.org/2000/svg">
<path d="M15.623 12.42C16.383 12.38 17.143 12.56 17.903 12.96C18.663 13.36 19.043 13.98 19.043 14.82C18.963 15.5 18.583 15.94 17.903 16.14C17.263 16.3 16.743 16.38 16.343 16.38C15.543 16.38 14.683 16.4 13.763 16.44C12.843 16.48 11.903 16.54 10.943 16.62C10.863 17.94 10.783 19.18 10.703 20.34C10.663 21.5 10.623 22.54 10.583 23.46C10.543 24.34 10.523 25.06 10.523 25.62C10.523 26.18 10.543 26.48 10.583 26.52C11.463 26.36 12.403 26.1 13.403 25.74C14.443 25.34 15.463 24.92 16.463 24.48C17.503 24 18.503 23.52 19.463 23.04C20.463 22.52 21.403 22.04 22.283 21.6C22.683 21.4 23.043 21.34 23.363 21.42C23.723 21.5 23.943 21.68 24.023 21.96C24.103 22.4 24.043 22.94 23.843 23.58C23.643 24.22 23.283 24.8 22.763 25.32C22.163 25.8 21.363 26.36 20.363 27C19.403 27.6 18.363 28.18 17.243 28.74C16.123 29.3 14.983 29.8 13.823 30.24C12.703 30.64 11.703 30.88 10.823 30.96C9.50297 31.08 8.50297 30.72 7.82297 29.88C7.14297 29.04 6.76297 27.98 6.68297 26.7C6.60297 25.42 6.58297 23.94 6.62297 22.26C6.70297 20.58 6.78297 18.8 6.86297 16.92C6.10297 17 5.36297 17.08 4.64297 17.16C3.96297 17.2 3.30297 17.26 2.66297 17.34C2.14297 17.34 1.56297 17.22 0.922969 16.98C0.322969 16.74 0.0229688 16.28 0.0229688 15.6C0.0229688 15.36 0.122969 15.04 0.322969 14.64C0.522969 14.24 0.962969 13.94 1.64297 13.74C3.28297 13.46 5.10297 13.22 7.10297 13.02C7.22297 11.14 7.36297 9.32 7.52297 7.56C7.68297 5.8 7.82297 4.2 7.94297 2.76C7.98297 2.28 8.12297 1.86 8.36297 1.5C8.60297 1.14 8.86297 0.959997 9.14297 0.959997C9.82297 0.919997 10.463 1.1 11.063 1.5C11.703 1.86 12.023 2.28 12.023 2.76C11.863 4.12 11.703 5.66 11.543 7.38C11.423 9.1 11.303 10.86 11.183 12.66C11.983 12.58 12.743 12.54 13.463 12.54C14.223 12.5 14.943 12.46 15.623 12.42ZM40.2952 7.56C41.4952 8 42.4952 8.66 43.2952 9.54C44.1352 10.42 44.7752 11.42 45.2152 12.54C45.6552 13.62 45.8952 14.74 45.9352 15.9C46.0152 17.06 45.8952 18.14 45.5752 19.14C45.1352 20.26 44.5752 21.36 43.8952 22.44C43.2152 23.52 42.4352 24.48 41.5552 25.32C40.6752 26.16 39.6752 26.84 38.5552 27.36C37.4352 27.88 36.1952 28.14 34.8352 28.14C33.1952 28.14 31.8152 27.76 30.6952 27C29.5752 26.24 28.6952 25.26 28.0552 24.06C27.4152 22.86 26.9952 21.5 26.7952 19.98C26.6352 18.46 26.6752 16.94 26.9152 15.42C27.0752 14.3 27.3352 13.22 27.6952 12.18C28.0952 11.1 28.5952 10.16 29.1952 9.36C29.7952 8.52 30.4752 7.84 31.2352 7.32C32.0352 6.8 32.9352 6.54 33.9352 6.54C34.4952 6.54 35.1952 6.66 36.0352 6.9C36.8752 7.1 37.6552 7.4 38.3752 7.8C38.8952 7.32 39.5352 7.24 40.2952 7.56ZM38.0152 11.94C37.5752 11.66 37.0552 11.3 36.4552 10.86C35.8952 10.38 35.3952 10.14 34.9552 10.14C34.4752 10.14 33.9952 10.36 33.5152 10.8C33.0752 11.24 32.6752 11.76 32.3152 12.36C31.9952 12.92 31.7152 13.5 31.4752 14.1C31.2352 14.7 31.0752 15.18 30.9952 15.54C30.8752 16.14 30.7952 16.86 30.7552 17.7C30.7152 18.54 30.7752 19.38 30.9352 20.22C31.0952 21.02 31.3952 21.76 31.8352 22.44C32.3152 23.08 33.0152 23.54 33.9352 23.82C34.4952 23.98 35.1552 23.98 35.9152 23.82C36.6752 23.62 37.4152 23.28 38.1352 22.8C38.8952 22.32 39.5952 21.68 40.2352 20.88C40.9152 20.08 41.4352 19.16 41.7952 18.12C42.1952 16.96 42.1952 15.76 41.7952 14.52C41.4352 13.24 40.6752 12.32 39.5152 11.76C39.2352 11.96 38.9552 12.06 38.6752 12.06C38.3952 12.06 38.1752 12.02 38.0152 11.94ZM60.953 35.04C60.913 35.48 60.713 35.88 60.353 36.24C59.993 36.64 59.593 36.82 59.153 36.78C58.473 36.74 57.953 36.48 57.593 36C57.233 35.52 57.053 35.12 57.053 34.8C57.053 33.28 57.013 31.7 56.933 30.06C56.853 28.38 56.753 26.66 56.633 24.9C56.113 24.98 55.633 24.94 55.193 24.78C54.793 24.58 54.513 24.28 54.353 23.88C54.073 23.2 54.113 22.6 54.473 22.08C54.833 21.56 55.413 21.06 56.213 20.58C56.013 19.1 55.813 17.64 55.613 16.2C55.453 14.76 55.273 13.36 55.073 12C55.033 11.76 55.053 11.54 55.133 11.34C55.213 11.14 55.313 10.96 55.433 10.8C55.553 10.6 55.773 10.42 56.093 10.26C56.613 10.06 57.193 10.22 57.833 10.74C58.513 11.26 58.973 11.92 59.213 12.72C59.333 13.48 59.453 14.36 59.573 15.36C59.733 16.32 59.873 17.38 59.993 18.54C60.833 18.02 61.613 17.46 62.333 16.86C63.093 16.26 63.733 15.62 64.253 14.94C64.813 14.26 65.233 13.56 65.513 12.84C65.793 12.08 65.873 11.3 65.753 10.5C65.673 9.82 65.373 9.22 64.853 8.7C64.333 8.14 63.513 7.84 62.393 7.8C61.393 7.76 60.393 7.84 59.393 8.04C58.433 8.24 57.473 8.5 56.513 8.82C55.593 9.14 54.673 9.52 53.753 9.96C52.873 10.4 52.013 10.84 51.173 11.28C50.613 11.6 50.053 11.74 49.493 11.7C48.973 11.62 48.633 11.42 48.473 11.1C48.113 10.3 48.133 9.58 48.533 8.94C48.973 8.3 49.633 7.7 50.513 7.14C51.273 6.7 52.173 6.26 53.213 5.82C54.293 5.34 55.413 4.94 56.573 4.62C57.773 4.26 58.973 4.02 60.173 3.9C61.413 3.74 62.593 3.76 63.713 3.96C64.833 4.12 65.833 4.5 66.713 5.1C67.633 5.66 68.373 6.5 68.933 7.62C69.613 9.46 69.793 11.16 69.473 12.72C69.193 14.24 68.593 15.64 67.673 16.92C66.793 18.16 65.693 19.3 64.373 20.34C63.093 21.34 61.793 22.24 60.473 23.04C60.673 25.2 60.813 27.34 60.893 29.46C60.973 31.58 60.993 33.44 60.953 35.04ZM80.5631 23.4C80.6031 23.56 80.6231 23.8 80.6231 24.12C80.6231 24.4 80.5631 24.7 80.4431 25.02C80.3231 25.3 80.1431 25.56 79.9031 25.8C79.7031 26 79.4031 26.1 79.0031 26.1C78.1231 25.54 77.3831 24.8 76.7831 23.88C76.4631 22.68 76.1631 21.3 75.8831 19.74C75.6431 18.18 75.4431 16.56 75.2831 14.88C75.1231 13.16 75.0031 11.42 74.9231 9.66C74.8831 7.9 74.8831 6.2 74.9231 4.56C74.9231 4.28 74.9431 3.92 74.9831 3.48C75.0631 3.04 75.1831 2.62 75.3431 2.22C75.5031 1.78 75.7031 1.42 75.9431 1.14C76.1831 0.819998 76.5231 0.659997 76.9631 0.659997C77.4831 0.659997 77.9031 0.819998 78.2231 1.14C78.5431 1.46 78.7031 1.98 78.7031 2.7C78.6631 4.3 78.6631 6.02 78.7031 7.86C78.7831 9.66 78.9031 11.48 79.0631 13.32C79.2231 15.16 79.4231 16.96 79.6631 18.72C79.9431 20.44 80.2431 22 80.5631 23.4ZM109.301 3.96C109.021 7.36 108.681 10.84 108.281 14.4C107.921 17.92 107.421 21.24 106.781 24.36C106.621 25.12 106.401 25.66 106.121 25.98C105.841 26.3 105.441 26.52 104.921 26.64C104.481 26.72 103.861 26.58 103.061 26.22C102.301 25.86 101.661 25.34 101.141 24.66C100.461 23.74 99.7208 22.74 98.9208 21.66C98.1608 20.54 97.3208 19.42 96.4008 18.3C95.5208 17.14 94.5808 16 93.5808 14.88C92.6208 13.76 91.6008 12.72 90.5208 11.76C90.4008 14.4 90.3008 17.02 90.2208 19.62C90.1408 22.18 90.1408 24.76 90.2208 27.36C90.2208 27.72 89.9008 27.9 89.2608 27.9C88.5008 27.9 87.8808 27.52 87.4008 26.76C86.9208 25.96 86.6408 25.16 86.5608 24.36C86.4408 23.56 86.3808 22.42 86.3808 20.94C86.3808 19.42 86.4008 17.84 86.4408 16.2C86.5208 14.56 86.6008 12.98 86.6808 11.46C86.7608 9.94 86.8408 8.74 86.9208 7.86C87.0008 6.9 87.2208 6.2 87.5808 5.76C87.9808 5.32 88.3608 5.12 88.7208 5.16C89.5208 5.24 90.0408 5.48 90.2808 5.88C90.5608 6.24 90.7208 6.7 90.7608 7.26C92.2008 8.3 93.5208 9.42 94.7208 10.62C95.9608 11.82 97.0808 13.04 98.0808 14.28C99.1208 15.52 100.061 16.76 100.901 18C101.781 19.2 102.601 20.3 103.361 21.3C103.841 18.9 104.221 16.22 104.501 13.26C104.821 10.3 105.141 7.2 105.461 3.96C105.421 3.56 105.661 3.18 106.181 2.82C106.701 2.42 107.181 2.24 107.621 2.28C108.741 2.36 109.301 2.92 109.301 3.96Z" fill="black"/>
</svg>
